<svg width="225" height="47" xmlns="http://www.w3.org/2000/svg" fill="#E3FDFF"
  style="background-color: #27303D">

  <g>
    <path id="svg_1"
      d="m17.32,20.016l18.56,25.984l-35.84,0l0,-44.544l35.84,0l-18.56,18.56zm-1.664,1.664l-13.248,13.248l0,8.704l28.928,0l-15.68,-21.952zm48.399,-21.184c3.328,0 6.4,0.832 9.216,2.496c2.816,1.62133 5.0347,3.84 6.656,6.656c1.664,2.816 2.496,5.888 2.496,9.216l0,9.728c0,3.328 -0.832,6.4 -2.496,9.216c-1.6213,2.816 -3.84,5.056 -6.656,6.72c-2.816,1.6213 -5.888,2.432 -9.216,2.432c-3.328,0 -6.4,-0.8107 -9.216,-2.432c-2.816,-1.664 -5.056,-3.904 -6.72,-6.72c-1.6213,-2.816 -2.432,-5.888 -2.432,-9.216l0,-9.728c0,-3.328 0.8107,-6.4 2.432,-9.216c1.664,-2.816 3.904,-5.03467 6.72,-6.656c2.816,-1.664 5.888,-2.496 9.216,-2.496zm-16,28.096c0,2.9013 0.704,5.5893 2.112,8.064c1.4507,2.432 3.392,4.3733 5.824,5.824c2.4747,1.408 5.1627,2.112 8.064,2.112c2.9013,0 5.568,-0.704 8,-2.112c2.4747,-1.4507 4.416,-3.392 5.824,-5.824c1.4507,-2.4747 2.176,-5.1627 2.176,-8.064l0,-9.728c0,-2.9013 -0.7253,-5.568 -2.176,-8c-1.408,-2.47467 -3.3493,-4.416 -5.824,-5.824c-2.432,-1.45067 -5.0987,-2.176 -8,-2.176c-2.9013,0 -5.5893,0.72533 -8.064,2.176c-2.432,1.408 -4.3733,3.34933 -5.824,5.824c-1.408,2.432 -2.112,5.0987 -2.112,8l0,9.728zm45.967,17.408l0,-44.544l2.496,0l31.104,30.208l0,-30.208l2.368,0l0,44.544l-2.368,0l0,-11.008l-31.232,-30.464l0,41.472l-2.368,0zm65.743,-21.312c-3.627,-0.7253 -6.592,-1.5147 -8.896,-2.368c-2.261,-0.896 -4.053,-2.0907 -5.376,-3.584c-1.28,-1.536 -1.92,-3.4987 -1.92,-5.888c0,-2.4747 0.64,-4.65067 1.92,-6.528c1.323,-1.87733 3.157,-3.328 5.504,-4.352c2.389,-1.024 5.141,-1.536 8.256,-1.536c2.987,0 5.717,0.64 8.192,1.92c2.517,1.23733 4.501,2.98666 5.952,5.248c1.451,2.26133 2.176,4.8427 2.176,7.744l-2.368,0c0,-2.5173 -0.619,-4.736 -1.856,-6.656c-1.237,-1.92 -2.923,-3.392 -5.056,-4.416c-2.133,-1.06667 -4.501,-1.6 -7.104,-1.6c-2.304,0 -4.459,0.36266 -6.464,1.088c-2.005,0.72533 -3.648,1.83467 -4.928,3.328c-1.237,1.49333 -1.856,3.3707 -1.856,5.632c0,2.048 0.597,3.6907 1.792,4.928c1.195,1.1947 2.752,2.112 4.672,2.752c1.92,0.64 4.608,1.3227 8.064,2.048c3.499,0.7253 6.208,1.4293 8.128,2.112c1.963,0.64 3.605,1.728 4.928,3.264c1.365,1.536 2.048,3.6907 2.048,6.464c0,2.7733 -0.747,5.12 -2.24,7.04c-1.451,1.8773 -3.392,3.2853 -5.824,4.224c-2.432,0.9387 -5.077,1.408 -7.936,1.408c-3.541,0 -6.656,-0.6613 -9.344,-1.984c-2.688,-1.3227 -4.757,-3.1787 -6.208,-5.568c-1.408,-2.432 -2.112,-5.2053 -2.112,-8.32l2.368,0c0,2.7307 0.597,5.12 1.792,7.168c1.237,2.048 3.008,3.648 5.312,4.8c2.304,1.1093 5.035,1.664 8.192,1.664c3.925,0 7.168,-0.9387 9.728,-2.816c2.603,-1.8773 3.904,-4.4373 3.904,-7.68c0,-2.2187 -0.555,-3.9253 -1.664,-5.12c-1.109,-1.1947 -2.517,-2.048 -4.224,-2.56c-1.664,-0.5547 -4.181,-1.1733 -7.552,-1.856zm28.431,-23.232l2.368,0l0,27.52c0,2.816 0.704,5.4187 2.112,7.808c1.408,2.3893 3.307,4.288 5.696,5.696c2.389,1.408 4.992,2.112 7.808,2.112c2.816,0 5.419,-0.704 7.808,-2.112c2.389,-1.408 4.288,-3.3067 5.696,-5.696c1.408,-2.3893 2.112,-4.992 2.112,-7.808l0,-27.52l2.368,0l0,27.52c0,3.2427 -0.811,6.2507 -2.432,9.024c-1.621,2.7307 -3.819,4.9067 -6.592,6.528c-2.731,1.6213 -5.717,2.432 -8.96,2.432c-3.243,0 -6.251,-0.8107 -9.024,-2.432c-2.731,-1.6213 -4.907,-3.7973 -6.528,-6.528c-1.621,-2.7733 -2.432,-5.7813 -2.432,-9.024l0,-27.52z" />
  </g>
</svg>
